<svg width="74" height="60" viewBox="0 0 74 60" fill="none" xmlns="http://www.w3.org/2000/svg">
  <path
    d="M12.0223 31.3453V31.8745L1.39371 38.302C1.24212 38.3874 1.0821 38.43 0.92208 38.43C0.610467 38.43 0.298853 38.2679 0.130413 37.9691C-0.130668 37.5252 0.0125056 36.9534 0.450449 36.6802L10.1863 30.8076C10.3716 24.6533 13.6645 18.9087 18.8946 15.7334L21.7244 14.0091C22.1623 13.736 22.7266 13.8811 22.9961 14.2225C23.2572 14.6664 23.114 15.2468 22.6761 15.5114L19.8463 17.2357C15.0121 20.2829 12.0223 25.652 12.0223 31.3453ZM60.0192 25.3105V31.038C60.0192 33.0013 58.4611 34.6828 56.423 34.6828V39.369C56.423 42.6809 53.9806 45.4379 50.8308 45.8733C50.3928 50.1155 46.8472 53.436 42.552 53.436H26.9881L15.2395 59.889C15.0963 59.9659 14.9531 60 14.8015 60C14.4815 60 14.153 59.8207 13.993 58.5574C13.7488 58.1051 13.9172 57.5332 14.3636 57.2856L26.7607 50.6106H42.9731C46.4429 50.6106 49.3485 47.7682 49.3485 44.149V43.321H50.1654C52.6162 43.321 54.6881 41.3237 54.6881 38.7373V32.2757H56.423C57.341 32.2757 58.1663 31.5417 58.1663 30.5088V24.9862C58.1663 24.0558 57.442 23.2193 56.423 23.2193H38.9558C38.5515 23.2193 38.1388 22.801 38.1388 22.3913C38.1388 21.9816 38.4505 21.5548 38.9558 21.5548H56.423C58.4695 21.5633 60.1287 23.2534 60.0192 25.3105ZM24.9753 29.0663V14.2567C24.9753 12.6349 25.7838 11.1582 27.1482 10.2961C31.0138 7.7524 35.4607 6.56592 40.0169 6.56592H46.9988L57.7958 0.129934C58.2253 -0.134676 58.798 0.0189684 59.0591 0.46283C59.3201 0.906691 59.1685 1.48712 58.7306 1.75173L47.4957 8.43526H40.0085C35.7975 8.43526 31.6876 9.62174 28.1251 11.8837C27.325 12.3873 26.8281 13.3007 26.8281 14.2567V29.0663C26.8281 31.1405 28.7989 32.7111 30.7359 32.7111C32.673 32.7111 34.3321 31.1319 34.3321 29.0663V18.7465C34.3321 18.3368 34.7448 17.9185 35.149 17.9185C35.5533 17.9185 35.966 18.2344 35.966 18.7465V29.1687C35.966 32.1648 33.5826 34.6914 30.517 34.6914C27.4682 34.6914 24.9753 32.1733 24.9753 29.0663ZM73.6038 23.2705L64.4576 29.7235C64.2975 29.8345 64.1123 29.8942 63.927 29.8942C63.6322 29.8942 63.3459 29.7577 63.169 29.4931C62.8742 29.0663 62.9753 28.4858 63.3964 28.1871L72.5427 21.734C72.9638 21.4438 73.5365 21.5377 73.8312 21.9645C74.126 22.3913 74.0249 22.9717 73.6038 23.2705Z"
    fill="#F58B31"/>
</svg>
