<svg width="48" height="60" viewBox="0 0 48 60" fill="none" xmlns="http://www.w3.org/2000/svg">
  <path
    d="M14.6613 0.938834C14.6613 0.418208 15.1822 0 15.5855 0H32.3053C32.8094 0 33.2295 0.418208 33.2295 0.938834C33.2295 1.45946 32.8178 1.87767 32.3053 1.87767H24.92V11.266C31.3138 11.5135 37.0691 14.2959 41.2281 18.6657L45.4878 14.33C45.8575 13.963 46.4372 13.963 46.8069 14.33C47.1682 14.7055 47.1682 15.2945 46.8069 15.67L42.4716 20.0654C45.9247 24.2816 48 29.7098 48 35.522C48 49.0925 37.2624 60 24.0042 60C10.746 60 0 49.0839 0 35.522C0 22.4723 10.2419 11.761 23.0716 11.266V1.76671H15.6863C15.1822 1.76671 14.7621 1.45092 14.7621 0.827881L14.6613 0.938834ZM23.8866 58.1223C36.2205 58.1223 46.1432 48.0427 46.1432 35.6245C46.1432 23.0953 36.2205 13.1266 23.8866 13.1266C11.6618 13.1266 1.73919 23.0953 1.73919 35.6245C1.73919 48.0427 11.6618 58.1223 23.8866 58.1223ZM24.92 37.5021C24.92 38.0142 24.4999 38.441 23.895 38.441C23.4917 38.441 22.9708 38.0228 22.9708 37.5021V21.559C22.9708 21.0469 23.4917 20.6202 23.895 20.6202C24.5083 20.6202 24.92 21.0384 24.92 21.559V37.5021Z"
    fill="#F58B31"/>
</svg>
