<svg width="46" height="60" viewBox="0 0 46 60" fill="none" xmlns="http://www.w3.org/2000/svg">
  <path
    d="M2.72037 38.3941C3.08793 38.0152 3.67773 38.0152 4.04529 38.3941C13.2172 47.8401 28.0734 47.8401 37.2368 38.3941C46.4001 28.9481 46.4001 13.6337 37.2368 4.17887C36.8692 3.79998 36.8692 3.19198 37.2368 2.81309L39.69 0.284172C40.0661 -0.0947241 40.6559 -0.0947241 41.0235 0.284172C41.3911 0.663069 41.3911 1.27107 41.0235 1.64996L39.2284 3.50039C48.4687 13.7482 48.255 29.7852 38.5702 39.7599C34.3476 44.1304 28.9795 46.6241 23.4661 47.2585V58.0615H40.3653C40.8782 58.0615 41.3056 58.4932 41.3056 59.0307C41.3056 59.5594 40.8867 60 40.3653 60H4.68638C4.16496 60 3.74612 59.5682 3.74612 59.0307C3.74612 58.502 4.16496 58.0615 4.68638 58.0615H21.483V47.3995C15.0892 47.6374 8.49875 45.32 3.4042 40.4296L1.60059 42.2888C1.23303 42.6677 0.643229 42.6677 0.27567 42.2888C-0.0918899 41.9011 -0.0918899 41.2931 0.27567 40.9142L2.72037 38.3941ZM39.425 21.1763C39.425 31.9793 31.0225 40.641 20.6453 40.641C10.2682 40.641 1.87413 31.9793 1.87413 21.1763C1.87413 10.5937 10.2767 1.81738 20.6539 1.81738C31.031 1.81738 39.425 10.5937 39.425 21.1763ZM20.6453 3.75592C11.311 3.75592 3.74612 11.6687 3.74612 21.1763C3.74612 30.9043 11.3196 38.7025 20.6453 38.7025C29.9711 38.7025 37.5445 30.8955 37.5445 21.1763C37.553 11.6687 29.9796 3.75592 20.6453 3.75592Z"
    fill="#F58B31"/>
</svg>
