<svg width="50" height="50" viewBox="0 0 50 50" fill="none" xmlns="http://www.w3.org/2000/svg">
  <path fill-rule="evenodd" clip-rule="evenodd" d="M25 50C38.8071 50 50 38.8071 50 25C50 11.1929 38.8071 0 25 0C11.1929 0 0 11.1929 0 25C0 38.8071 11.1929 50 25 50ZM34.3311 37C35.1234 36.9792 35.6239 36.583 35.8532 35.8324L36.9791 30.8907C37.0834 30.0984 36.7915 29.4937 36.1034 29.0767L30.8282 26.8249C30.0984 26.5538 29.4937 26.6998 29.0142 27.2627L26.8666 29.9108C25.1776 29.0559 23.6764 27.9716 22.3211 26.6372C20.9658 25.3028 19.9024 23.8015 19.0892 22.0917L21.6747 19.9858C22.2377 19.5063 22.3837 18.9016 22.1126 18.1927L19.8607 12.9174C19.4854 12.1877 18.8807 11.8957 18.1093 12.0209L13.1676 13.1468C12.417 13.3761 12.0417 13.8766 12 14.6689C12.0417 18.7973 13.0634 22.5505 15.0859 25.9074C17.0667 29.2644 19.7356 31.9333 23.0926 33.9141C26.4495 35.9366 30.2027 36.9583 34.3311 37Z" fill="#F58B31"/>
</svg>
