<svg width="50" height="50" viewBox="0 0 50 50" fill="none" xmlns="http://www.w3.org/2000/svg">
  <path fill-rule="evenodd" clip-rule="evenodd"
        d="M25 50C38.8071 50 50 38.8071 50 25C50 11.1929 38.8071 0 25 0C11.1929 0 0 11.1929 0 25C0 38.8071 11.1929 50 25 50ZM37 21.8125C37 21.0625 36.7083 20.4375 36.125 19.9583C36.0442 19.8988 35.9609 19.8376 35.8749 19.7744C35.5396 19.5281 35.1646 19.2526 34.75 18.9375C34.2708 18.5417 33.5 17.9792 32.4583 17.2292C32.16 17.01 31.8244 16.7624 31.4509 16.4868C30.5461 15.8194 29.4191 14.988 28.0625 14C27.9868 13.9495 27.9035 13.8838 27.8125 13.812C27.7532 13.7653 27.6907 13.716 27.625 13.6667C27.1667 13.2917 26.6667 12.9375 26.1042 12.5833C25.5208 12.2292 24.9792 12.0417 24.5 12C24.0208 12.0417 23.4792 12.2292 22.8958 12.5833C22.3333 12.9583 21.8333 13.3125 21.375 13.6667C21.3319 13.699 21.2903 13.7299 21.25 13.7597C21.1344 13.8455 21.0302 13.9227 20.9375 14C20.753 14.1537 20.5686 14.2848 20.3924 14.4099C20.3299 14.4543 20.2684 14.498 20.2083 14.5417C18.5 15.7708 17.2083 16.7292 16.2917 17.4167C15.3542 18.0625 14.6458 18.5833 14.125 18.9792C13.6458 19.3333 13.2083 19.6667 12.8542 19.9583C12.2708 20.4375 11.9792 21.0625 11.9792 21.8125V34.6458C12.0208 35.3125 12.25 35.8542 12.6667 36.3125C13.125 36.75 13.6875 36.9583 14.3333 37H34.6458C35.3125 36.9583 35.8542 36.7292 36.3125 36.3125C36.75 35.8958 36.9583 35.3542 37 34.7083V21.8125ZM33.875 24.4375L26.7917 29.9583C26.0833 30.5 25.3125 30.75 24.5 30.75C23.6875 30.75 22.9167 30.5 22.2083 29.9792L15.125 24.4583V22.2083C15.5417 21.8542 16.2708 21.2708 17.3333 20.5C18.1257 19.9057 19.4281 18.9583 21.2303 17.6475C21.7026 17.3039 22.2092 16.9354 22.75 16.5417C22.8958 16.4167 23.0833 16.2708 23.2708 16.1458C23.3125 16.125 23.3542 16.0833 23.375 16.0625C23.6728 15.8348 23.9853 15.6218 24.3125 15.3988C24.3745 15.3566 24.437 15.314 24.5 15.2708C24.9583 15.5625 25.3542 15.8542 25.7292 16.1458C25.8799 16.2463 26.0306 16.3603 26.1705 16.466C26.2046 16.4918 26.2381 16.5171 26.2708 16.5417C28.8333 18.4375 30.6458 19.75 31.6875 20.5C32.2993 20.9716 32.8098 21.3731 33.2189 21.6948C33.4784 21.8989 33.6971 22.0709 33.875 22.2083V24.4375Z"
        fill="#F58B31"/>
</svg>
