<svg width="50" height="50" viewBox="0 0 50 50" fill="none" xmlns="http://www.w3.org/2000/svg">
  <path fill-rule="evenodd" clip-rule="evenodd" d="M25 50C38.8071 50 50 38.8071 50 25C50 11.1929 38.8071 0 25 0C11.1929 0 0 11.1929 0 25C0 38.8071 11.1929 50 25 50ZM17.5833 27.4825C18.5756 29.4023 19.7156 31.2596 21.0033 33.0543C22.3122 34.8698 23.4311 36.3306 24.3178 37.4157C24.6344 37.8122 25.0356 38 25.5 38C25.9644 38 26.3444 37.8122 26.6822 37.4157C27.5689 36.3306 28.6667 34.8698 29.9544 33.0543C31.2422 31.2596 32.4033 29.4023 33.4167 27.4825C34.4089 25.5626 34.9367 23.8514 35 22.3907C34.9367 19.7195 34.0289 17.4866 32.2344 15.7337C30.44 13.9808 28.2022 13.0626 25.5 13C22.7978 13.0626 20.5389 13.9599 18.7656 15.7337C16.9922 17.5075 16.0633 19.7195 16 22.3907C16.0633 23.8514 16.5911 25.5626 17.5833 27.4825ZM28.6667 22.3907C28.6244 23.2671 28.3289 23.9975 27.7167 24.5818C27.1256 25.187 26.3867 25.4791 25.5 25.5209C24.6133 25.4791 23.8956 25.1661 23.2833 24.5818C22.6711 23.9975 22.3756 23.2671 22.3333 22.3907C22.3756 21.5142 22.6922 20.8047 23.2833 20.1995C23.8744 19.5943 24.6133 19.3022 25.5 19.2604C26.3867 19.3022 27.1044 19.6152 27.7167 20.1995C28.3289 20.7838 28.6244 21.5142 28.6667 22.3907Z" fill="#F58B31"/>
</svg>
