<svg width="70" height="62" viewBox="0 0 70 62" fill="none" xmlns="http://www.w3.org/2000/svg">
<g clip-path="url(#clip0_134_149)">
<path d="M11.257 62.0001C7.65545 57.874 3.90027 53.8893 0 50.0627C4.25018 45.662 8.67959 41.4527 13.2797 37.4514C17.82 40.8454 22.2239 44.4225 26.4826 48.1743C21.4045 52.4169 15.9681 57.2584 11.257 62.0001ZM49.1502 31.6116C43.8332 28.2841 38.3797 25.1895 32.7981 22.3444C26.7045 26.5038 20.8498 30.9793 15.2341 35.746C19.783 39.1567 24.1868 42.7504 28.4455 46.5189C35.0427 41.1532 41.9471 36.1786 49.1502 31.6116ZM70 19.9486C64.0856 16.5961 58.0176 13.5348 51.83 10.7563C46.1119 13.8426 40.556 17.1868 35.1792 20.7555C40.7523 23.6422 46.2058 26.77 51.5143 30.1308C57.4884 26.4456 63.6503 23.0515 70 19.9486Z" fill="url(#paint0_radial_134_149)"/>
<path d="M22.2314 0C25.7221 0.989937 29.1871 2.06306 32.6265 3.22769C27.6509 6.24742 22.8033 9.45016 18.1093 12.8442C15.1051 11.6047 12.0754 10.4401 9.0115 9.33369C13.2873 6.0644 17.6996 2.95317 22.2314 0ZM48.9359 9.48343C44.5833 7.6117 40.1624 5.88139 35.6989 4.2925C30.5953 7.32054 25.6367 10.5482 20.8318 13.9756C24.8174 15.6809 28.7433 17.5028 32.6179 19.441C37.8923 15.8889 43.3373 12.578 48.9359 9.48343ZM13.1507 34.2152C10.0356 31.9359 6.86934 29.7397 3.63477 27.6351C8.38848 23.4341 13.3385 19.4577 18.4677 15.6976C22.4448 17.3697 26.3707 19.1582 30.2368 21.0632C24.3139 25.1644 18.6128 29.5484 13.1507 34.2152Z" fill="url(#paint1_radial_134_149)"/>
</g>
<defs>
<radialGradient id="paint0_radial_134_149" cx="0" cy="0" r="1" gradientUnits="userSpaceOnUse" gradientTransform="translate(25.6507 27.5894) scale(41.0335 39.9964)">
<stop stop-color="#F6A531"/>
<stop offset="0.3106" stop-color="#F58B31"/>
<stop offset="0.9714" stop-color="#F44931"/>
<stop offset="1" stop-color="#F44631"/>
</radialGradient>
<radialGradient id="paint1_radial_134_149" cx="0" cy="0" r="1" gradientUnits="userSpaceOnUse" gradientTransform="translate(17.1025 7.01716) scale(32.985 32.1513)">
<stop offset="0.231" stop-color="#9E9FA3"/>
<stop offset="0.4238" stop-color="#9B9CA0"/>
<stop offset="0.583" stop-color="#929395"/>
<stop offset="0.7299" stop-color="#828384"/>
<stop offset="0.8401" stop-color="#727272"/>
</radialGradient>
<clipPath id="clip0_134_149">
<rect width="70" height="62" fill="white"/>
</clipPath>
</defs>
</svg>
