<svg width="20" height="20" viewBox="0 0 20 20" fill="none" xmlns="http://www.w3.org/2000/svg">
<path d="M19.9286 14.1218C19.8525 15.7211 19.4907 17.149 18.3103 18.3103C17.149 19.4907 15.7211 19.8525 14.1218 19.9286C12.4655 20.0238 7.51547 20.0238 5.87816 19.9286C4.27892 19.8525 2.87007 19.4907 1.68968 18.3103C0.509286 17.149 0.147549 15.7211 0.0713946 14.1218C-0.0237982 12.4655 -0.0237982 7.51547 0.0713946 5.87815C0.147549 4.27891 0.509286 2.85102 1.68968 1.68967C2.87007 0.52832 4.27892 0.147549 5.87816 0.0713946C7.53451 -0.0237982 12.4845 -0.0237982 14.1218 0.0713946C15.7211 0.147549 17.149 0.509281 18.3103 1.68967C19.4907 2.85102 19.8525 4.27891 19.9286 5.87815C20.0238 7.53451 20.0238 12.4845 19.9286 14.1218ZM18.1961 10.0095C18.1961 8.56259 18.3103 5.44027 17.7963 4.10757C17.4536 3.23179 16.7682 2.54641 15.8924 2.20371C14.5788 1.68967 11.4565 1.8039 9.99049 1.8039C8.54356 1.8039 5.42123 1.68967 4.08853 2.20371C3.21276 2.56545 2.52737 3.23179 2.18468 4.10757C1.67063 5.42123 1.78487 8.54355 1.78487 10.0095C1.78487 11.4755 1.67063 14.5788 2.18468 15.9115C2.52737 16.7872 3.21276 17.4726 4.08853 17.8153C5.40219 18.3294 8.52452 18.2151 9.99049 18.2151C11.4374 18.2151 14.5788 18.3294 15.8924 17.8153C16.7682 17.4536 17.4536 16.7872 17.7963 15.9115C18.3103 14.5978 18.1961 11.4564 18.1961 10.0095ZM15.1119 10.0095C15.1119 12.8463 12.8272 15.1309 9.99049 15.1309C7.15374 15.1309 4.86911 12.8463 4.86911 10.0095C4.86911 7.17278 7.15374 4.88815 9.99049 4.88815C12.8272 4.88815 15.1119 7.17278 15.1119 10.0095ZM13.3222 10.0095C13.3222 8.16278 11.8182 6.67777 9.99049 6.67777C8.16279 6.67777 6.65874 8.18182 6.65874 10.0095C6.65874 11.8563 8.16279 13.3413 9.99049 13.3413C11.8182 13.3413 13.3222 11.8563 13.3222 10.0095ZM15.3213 3.4793C14.6549 3.4793 14.1218 4.01237 14.1218 4.67872C14.1218 5.34507 14.6549 5.87815 15.3213 5.87815C15.9876 5.87815 16.5207 5.34507 16.5207 4.67872C16.5207 4.01237 15.9876 3.4793 15.3213 3.4793Z" fill="white"/>
</svg>
