<svg width="50" height="50" viewBox="0 0 50 50" fill="none" xmlns="http://www.w3.org/2000/svg">
<g clip-path="url(#clip0_134_206)">
<path d="M11.6333 48.9167V49.7833C11.6333 49.9 11.5333 50 11.4167 50H7.28333C7.16667 50 7.06667 49.9 7.06667 49.7833V48.9167C7.06667 48.8 7.16667 48.7 7.28333 48.7H11.4167C11.5333 48.7 11.6333 48.8 11.6333 48.9167ZM38.3667 48.9167V49.7833C38.3667 49.9 38.4667 50 38.5833 50H42.7167C42.8333 50 42.9333 49.9 42.9333 49.7833V48.9167C42.9333 48.8 42.8333 48.7 42.7167 48.7H38.5833C38.4667 48.7 38.3667 48.8 38.3667 48.9167ZM50 21.6167V45.5667C50 46.8333 48.9833 47.85 47.7167 47.85H2.28333C1.01667 47.85 0 46.8333 0 45.5667V21.6167C0 20.35 1.01667 19.3333 2.28333 19.3333H3.58333V20.5C3.58333 21.5833 4.46667 22.4667 5.55 22.4667H13.15C14.2333 22.4667 15.1167 21.5833 15.1167 20.5V19.3333H34.9V20.5C34.9 21.5833 35.7833 22.4667 36.8667 22.4667H44.4667C45.55 22.4667 46.4333 21.5833 46.4333 20.5V19.3333H47.7333C48.9833 19.3167 50 20.35 50 21.6167ZM6.81667 23.4667C6.81667 23.2333 6.61667 23.0333 6.38333 23.0333H5.25C5.01667 23.0333 4.81667 23.2333 4.81667 23.4667V43.7167C4.81667 43.95 5.01667 44.15 5.25 44.15H6.38333C6.61667 44.15 6.81667 43.95 6.81667 43.7167V23.4667ZM11.0833 23.4667C11.0833 23.2333 10.8833 23.0333 10.65 23.0333H9.51667C9.28333 23.0333 9.08333 23.2333 9.08333 23.4667V43.7167C9.08333 43.95 9.28333 44.15 9.51667 44.15H10.65C10.8833 44.15 11.0833 43.95 11.0833 43.7167V23.4667V23.4667ZM15.35 23.4667C15.35 23.2333 15.15 23.0333 14.9167 23.0333H13.7833C13.55 23.0333 13.35 23.2333 13.35 23.4667V43.7167C13.35 43.95 13.55 44.15 13.7833 44.15H14.9167C15.15 44.15 15.35 43.95 15.35 43.7167V23.4667V23.4667ZM19.6 23.4667C19.6 23.2333 19.4 23.0333 19.1667 23.0333H18.0333C17.8 23.0333 17.6 23.2333 17.6 23.4667V43.7167C17.6 43.95 17.8 44.15 18.0333 44.15H19.1667C19.4 44.15 19.6 43.95 19.6 43.7167V23.4667ZM23.8667 23.4667C23.8667 23.2333 23.6667 23.0333 23.4333 23.0333H22.3C22.0667 23.0333 21.8667 23.2333 21.8667 23.4667V43.7167C21.8667 43.95 22.0667 44.15 22.3 44.15H23.4333C23.6667 44.15 23.8667 43.95 23.8667 43.7167V23.4667ZM28.1333 23.4667C28.1333 23.2333 27.9333 23.0333 27.7 23.0333H26.5667C26.3333 23.0333 26.1333 23.2333 26.1333 23.4667V43.7167C26.1333 43.95 26.3333 44.15 26.5667 44.15H27.7C27.9333 44.15 28.1333 43.95 28.1333 43.7167V23.4667ZM32.4 23.4667C32.4 23.2333 32.2 23.0333 31.9667 23.0333H30.8333C30.6 23.0333 30.4 23.2333 30.4 23.4667V43.7167C30.4 43.95 30.6 44.15 30.8333 44.15H31.9667C32.2 44.15 32.4 43.95 32.4 43.7167V23.4667ZM36.65 23.4667C36.65 23.2333 36.45 23.0333 36.2167 23.0333H35.0833C34.85 23.0333 34.65 23.2333 34.65 23.4667V43.7167C34.65 43.95 34.85 44.15 35.0833 44.15H36.2167C36.45 44.15 36.65 43.95 36.65 43.7167V23.4667ZM40.9167 23.4667C40.9167 23.2333 40.7167 23.0333 40.4833 23.0333H39.35C39.1167 23.0333 38.9167 23.2333 38.9167 23.4667V43.7167C38.9167 43.95 39.1167 44.15 39.35 44.15H40.4833C40.7167 44.15 40.9167 43.95 40.9167 43.7167V23.4667ZM45.1833 23.4667C45.1833 23.2333 44.9833 23.0333 44.75 23.0333H43.6167C43.3833 23.0333 43.1833 23.2333 43.1833 23.4667V43.7167C43.1833 43.95 43.3833 44.15 43.6167 44.15H44.75C44.9833 44.15 45.1833 43.95 45.1833 43.7167V23.4667ZM27.7667 11.5C27.7667 13.0167 26.5333 14.2667 25 14.2667C23.4667 14.2667 22.2333 13.0333 22.2333 11.5H23.0833C23.0833 12.55 23.95 13.4167 25 13.4167C26.05 13.4167 26.9167 12.5667 26.9167 11.5C26.9167 10.4333 26.05 9.58333 25 9.58333H24.5833V8.21667C23.5 8.01667 22.6667 7.11667 22.6667 5.96667C22.6667 4.68333 23.7167 3.63333 25 3.63333C26.2833 3.63333 27.3333 4.68333 27.3333 5.96667C27.3333 7.1 26.5 8.01667 25.4167 8.21667V8.76667C26.75 8.98333 27.7667 10.1167 27.7667 11.5ZM25 7.7C25.9667 7.7 26.7333 6.91667 26.7333 5.96667C26.7333 5.01667 25.9667 4.23333 25 4.23333C24.05 4.23333 23.2667 5.01667 23.2667 5.96667C23.2667 6.91667 24.0333 7.7 25 7.7ZM25 6.86667C25.5 6.86667 25.9 6.46667 25.9 5.96667C25.9 5.46667 25.5 5.08333 25 5.08333C24.5 5.08333 24.1 5.48333 24.1 5.98333C24.1 6.48333 24.5 6.86667 25 6.86667ZM14.2667 21.0667V17.5833C14.2667 17.2833 14.0167 17.0333 13.7167 17.0333H4.98333C4.68333 17.0333 4.43333 17.2833 4.43333 17.5833V21.0667C4.43333 21.3667 4.68333 21.6167 4.98333 21.6167H13.7167C14.0167 21.6167 14.2667 21.3667 14.2667 21.0667ZM36.2833 21.6167H45.0167C45.3167 21.6167 45.5667 21.3667 45.5667 21.0667V17.5833C45.5667 17.2833 45.3167 17.0333 45.0167 17.0333H36.2833C35.9833 17.0333 35.7333 17.2833 35.7333 17.5833V21.0667C35.7333 21.3667 35.9833 21.6167 36.2833 21.6167ZM22.3833 13.95L14.6167 16.8833C14.8 17.1 14.9333 17.35 15 17.65L23.1833 14.5667C22.9 14.3833 22.6167 14.2 22.3833 13.95ZM27.6167 13.95C27.3833 14.2 27.1 14.3833 26.8 14.55L34.9833 17.6333C35.0667 17.35 35.1833 17.0833 35.3833 16.8667L27.6167 13.95ZM22.3333 0L23.8833 3.01667C24.15 2.91667 24.45 2.86667 24.75 2.85L23.2833 0H22.3333ZM26.7 0L25.2333 2.83333C25.5333 2.85 25.8333 2.9 26.1 3L27.6667 0H26.7Z" fill="#F58B31"/>
</g>
<defs>
<clipPath id="clip0_134_206">
<rect width="50" height="50" fill="white"/>
</clipPath>
</defs>
</svg>
