<svg width="50" height="50" viewBox="0 0 50 50" fill="none" xmlns="http://www.w3.org/2000/svg">
<g clip-path="url(#clip0_134_211)">
<path d="M14.4333 26.6667V33.4L13.5167 34.3167L12.6 33.4L11.6667 34.3167L10.75 33.4L9.83333 34.3167L8.91667 33.4V26.6667H0V50H23.3333V26.6667H14.4333ZM5.35 48.2167H1.78333V44.65H5.35V48.2167ZM27.7667 0V6.73333L26.85 7.65L25.9333 6.73333L25 7.65L24.0833 6.73333L23.1667 7.65L22.25 6.73333V0H13.3333V23.3333H36.6667V0H27.7667ZM18.6833 21.55H15.1167V17.9833H18.6833V21.55ZM41.1 26.6667V33.4L40.1833 34.3167L39.2667 33.4L38.3333 34.3167L37.4167 33.4L36.5 34.3167L35.5833 33.4V26.6667H26.6667V50H50V26.6667H41.1ZM32.0167 48.2167H28.45V44.65H32.0167V48.2167Z" fill="#F58B31"/>
</g>
<defs>
<clipPath id="clip0_134_211">
<rect width="50" height="50" fill="white"/>
</clipPath>
</defs>
</svg>
