<svg width="43" height="50" viewBox="0 0 43 50" fill="none" xmlns="http://www.w3.org/2000/svg">
<g clip-path="url(#clip0_134_201)">
<path d="M40.65 39.6667H40.2333V31.2667C40.2333 30.2333 39.3833 29.3833 38.35 29.3833H35.95V14.1833V2.55C35.95 1.15 34.8167 0 33.4 0V7.78333C31.6667 5.93333 29.2333 4.75 26.5 4.75H16.1667C13.4333 4.75 10.9833 5.93333 9.26667 7.78333V0C7.85 0 6.71667 1.13333 6.71667 2.55V14.1833V29.3833H4.31667C3.28333 29.3833 2.43333 30.2333 2.43333 31.2667V39.6667H2.03333C0.9 39.6667 0 40.5833 0 41.7V44.05C0 45.1667 0.9 46.0833 2.03333 46.0833H4.61667V48.1333C4.61667 49.15 5.45 50 6.5 50H9.15C10.1833 50 11.0333 49.15 11.0333 48.1167V46.0667H31.6667V48.1167C31.6667 49.15 32.5167 50 33.55 50H36.2C37.2333 50 38.0833 49.15 38.0833 48.1167V46.0667H40.6667C41.7833 46.0667 42.7 45.1667 42.7 44.0333V41.6833C42.6667 40.5833 41.7667 39.6667 40.65 39.6667ZM11.0167 37.05C11.0167 37.55 10.6 37.9667 10.1 37.9667H5.53333C5.03333 37.9667 4.61667 37.55 4.61667 37.05V36.4167C4.61667 35.9167 5.03333 35.5 5.53333 35.5H10.1C10.6 35.5 11.0167 35.9167 11.0167 36.4167V37.05ZM28.6667 36.0833C28.6667 37.1167 27.8167 37.9667 26.7833 37.9667H15.8833C14.85 37.9667 14 37.1167 14 36.0833V26.8833C14 25.85 14.85 25 15.8833 25H26.8C27.8333 25 28.6833 25.85 28.6833 26.8833V36.0833H28.6667ZM31.5 22.75H11.1667C10.3667 22.75 9.71667 22.1 9.71667 21.3V14.45C9.71667 13.65 10.3667 13 11.1667 13H31.5C32.3 13 32.95 13.65 32.95 14.45V21.3C32.95 22.1 32.3 22.75 31.5 22.75ZM38.0667 37.05C38.0667 37.55 37.65 37.9667 37.15 37.9667H32.5833C32.0833 37.9667 31.6667 37.55 31.6667 37.05V36.4167C31.6667 35.9167 32.0833 35.5 32.5833 35.5H37.15C37.65 35.5 38.0667 35.9167 38.0667 36.4167V37.05ZM27.0833 26.9833V27.0833C27.0833 27.3167 26.9 27.5 26.6667 27.5H16.0167C15.7833 27.5 15.6 27.3167 15.6 27.0833V26.9833C15.6 26.75 15.7833 26.5667 16.0167 26.5667H26.6667C26.9 26.55 27.0833 26.75 27.0833 26.9833ZM26.6667 36.4167H16.0167C15.7833 36.4167 15.6 36.2333 15.6 36V35.9C15.6 35.6667 15.7833 35.4833 16.0167 35.4833H26.6667C26.9 35.4833 27.0833 35.6667 27.0833 35.9V36C27.0833 36.2167 26.9 36.4167 26.6667 36.4167ZM26.6667 34.6333H16.0167C15.7833 34.6333 15.6 34.45 15.6 34.2167V34.1167C15.6 33.8833 15.7833 33.7 16.0167 33.7H26.6667C26.9 33.7 27.0833 33.8833 27.0833 34.1167V34.2167C27.0833 34.45 26.9 34.6333 26.6667 34.6333ZM26.6667 32.85H16.0167C15.7833 32.85 15.6 32.6667 15.6 32.4333V32.3333C15.6 32.1 15.7833 31.9167 16.0167 31.9167H26.6667C26.9 31.9167 27.0833 32.1 27.0833 32.3333V32.4333C27.0833 32.6667 26.9 32.85 26.6667 32.85ZM26.6667 31.0667H16.0167C15.7833 31.0667 15.6 30.8833 15.6 30.65V30.55C15.6 30.3167 15.7833 30.1333 16.0167 30.1333H26.6667C26.9 30.1333 27.0833 30.3167 27.0833 30.55V30.65C27.0833 30.8833 26.9 31.0667 26.6667 31.0667ZM26.6667 29.2833H16.0167C15.7833 29.2833 15.6 29.1 15.6 28.8667V28.7667C15.6 28.5333 15.7833 28.35 16.0167 28.35L26.6667 28.3333C26.9 28.3333 27.0833 28.5167 27.0833 28.75V28.85C27.0833 29.1 26.9 29.2833 26.6667 29.2833Z" fill="#F58B31"/>
</g>
<defs>
<clipPath id="clip0_134_201">
<rect width="42.6667" height="50" fill="white"/>
</clipPath>
</defs>
</svg>
