<svg width="50" height="50" viewBox="0 0 50 50" fill="none" xmlns="http://www.w3.org/2000/svg">
<g clip-path="url(#clip0_134_216)">
<path d="M12.4 31.45H0.9C0.3 29.2333 0 27.0833 0 25C0 22.9167 0.3 20.7667 0.9 18.55H12.4C12.2 20.7667 12.1 22.9167 12.1 25C12.1 27.0167 12.2 29.1667 12.4 31.45ZM12.8 15.3167H1.91667C3.4 11.8833 5.53333 8.91667 8.31667 6.4C11.1 3.88333 14.2833 2.08333 17.85 1C15.4167 4.36667 13.75 9.13333 12.8 15.3167ZM12.8 34.6833C13.8 40.8667 15.4833 45.6333 17.8333 49C14.2667 47.9167 11.1 46.1333 8.3 43.6C5.51667 41.0833 3.38333 38.1 1.9 34.6833H12.8ZM15.6333 18.55H34.3833C34.5833 20.7 34.6833 22.85 34.6833 25C34.6833 27.15 34.5833 29.3 34.3833 31.45H15.6333C15.4167 29.3 15.3167 27.15 15.3167 25C15.3167 22.85 15.4167 20.7 15.6333 18.55ZM16.1333 15.3167C16.8667 10.75 18.05 7.05 19.6667 4.23333C21.2833 1.41667 23.05 0 25 0C26.95 0 28.7333 1.41667 30.35 4.23333C31.9667 7.05 33.1667 10.75 33.9833 15.3167H16.1333ZM33.8667 34.6833C33.1333 39.25 31.95 42.95 30.3333 45.7667C28.7333 48.5833 26.95 50 25 50C23.05 50 21.2667 48.5833 19.65 45.7667C18.0333 42.95 16.8667 39.25 16.1167 34.6833H33.8667ZM37.2 15.3167C36.2 9.13333 34.5167 4.36667 32.1667 1C35.7333 2.08333 38.9 3.86667 41.7 6.4C44.5 8.93333 46.6167 11.9 48.1 15.3167H37.2ZM37.2 34.6833H48.0833C46.6 38.1167 44.4667 41.0833 41.6833 43.6C38.9 46.1167 35.7167 47.9167 32.15 49C34.5833 45.6333 36.25 40.8667 37.2 34.6833ZM50 25C50 27.15 49.7 29.3 49.1 31.45H37.6C37.8 29.2333 37.9 27.0833 37.9 25C37.9 22.9167 37.8 20.7667 37.6 18.55H49.1C49.7 20.7 50 22.85 50 25Z" fill="#F58B31"/>
</g>
<defs>
<clipPath id="clip0_134_216">
<rect width="50" height="50" fill="white"/>
</clipPath>
</defs>
</svg>
