<svg width="20" height="20" viewBox="0 0 20 20" fill="none" xmlns="http://www.w3.org/2000/svg">
<path d="M2.39544 4.82793C1.06464 4.82793 0 3.72243 0 2.40726C0 0.558407 1.9962 -0.604277 3.59315 0.329682C4.3346 0.768071 4.79087 1.54955 4.79087 2.40726C4.79087 3.72243 3.72624 4.82793 2.39544 4.82793ZM4.46768 20H0.342206V6.63867H4.48669V20H4.46768ZM19.962 20H15.8365V13.5004C15.8365 11.9565 15.7985 9.95518 13.6882 9.95518C11.5399 9.95518 11.2167 11.6325 11.2167 13.386V20H7.09125V6.63867H11.0646V8.46847H11.1217C11.673 7.42015 13.0228 6.31464 15.038 6.31464C19.2205 6.31464 20 9.0784 20 12.6808L19.962 20Z" fill="white"/>
</svg>
