<svg width="240" height="221" viewBox="0 0 240 221" fill="none" xmlns="http://www.w3.org/2000/svg">
<path d="M84 171C64.4583 189.674 53.0373 200.487 35 220.5L0 179.5C12.911 163.602 22.4168 153.065 41 134L84 171Z" fill="url(#paint0_linear_201_27)"/>
<path d="M108 79C84.2731 95.6223 71.0598 106.693 50.5 125.5C65.9762 137.142 76.6858 145.27 96 161C123.131 138.819 139.396 126.523 167 110C143.461 96.9682 129.666 89.257 108 79Z" fill="url(#paint1_linear_201_27)"/>
<path d="M178.5 40C148.784 54.6195 134.72 61.7763 118.5 72.5C144.618 84.9705 158.823 92.2165 178 103.5C200.907 90.9573 214.952 83.6933 238.5 72C221.485 60.9146 207.045 53.7859 178.5 40Z" fill="url(#paint2_linear_201_27)"/>
<path d="M98.5 75.5C78.0487 90.044 65.3997 100.981 43.5 120.5L13 96.5C29.9411 79.5294 40.355 70.8063 59 56.5L98.5 75.5Z" fill="#1F4AA0"/>
<path d="M121 16.5C99.4548 28.7922 86.4482 36.8709 68.5 49.5C83.4117 56.1503 92.996 60.3463 110 68.5C132.726 54.6188 146.158 47.2877 170 36C150.14 27.2789 139.65 23.3746 121 16.5Z" fill="#1F4AA0"/>
<path d="M62 47.5L30 31.5C47.691 17.6562 59.4389 9.92844 75 0L113 14.5C94.0085 24.8966 82.4043 33.045 62 47.5Z" fill="#275DC9"/>
<defs>
<linearGradient id="paint0_linear_201_27" x1="19" y1="156" x2="79.5" y2="193" gradientUnits="userSpaceOnUse">
<stop offset="0.0940714" stop-color="#F78F1E"/>
<stop offset="1" stop-color="#EE3723"/>
</linearGradient>
<linearGradient id="paint1_linear_201_27" x1="59.5" y1="106" x2="226" y2="136" gradientUnits="userSpaceOnUse">
<stop offset="0.159833" stop-color="#F78F1E"/>
<stop offset="0.830405" stop-color="#EE3723"/>
</linearGradient>
<linearGradient id="paint2_linear_201_27" x1="123.5" y1="59.5" x2="225" y2="109" gradientUnits="userSpaceOnUse">
<stop offset="0.177211" stop-color="#F78F1E"/>
<stop offset="1" stop-color="#EE2623"/>
</linearGradient>
</defs>
</svg>
