<svg width="34" height="30" viewBox="0 0 34 30" fill="none" xmlns="http://www.w3.org/2000/svg">
<g clip-path="url(#clip0_134_287)">
<path d="M5.46769 30C3.71836 28.0035 1.89442 26.0754 0 24.2238C2.06437 22.0945 4.2158 20.0577 6.45013 18.1216C8.65545 19.7639 10.7944 21.4947 12.863 23.3101C10.3965 25.3629 7.75591 27.7056 5.46769 30ZM23.873 15.2959C21.2904 13.6858 18.6416 12.1884 15.9305 10.8118C12.9707 12.8244 10.127 14.9899 7.39942 17.2964C9.60888 18.9467 11.7479 20.6856 13.8164 22.5091C17.0207 19.9128 20.3743 17.5057 23.873 15.2959ZM34 9.65249C31.1273 8.03033 28.18 6.54905 25.1746 5.20462C22.3972 6.69798 19.6986 8.31612 17.0871 10.0429C19.794 11.4397 22.4428 12.9532 25.0212 14.5794C27.9229 12.7962 30.9159 11.1539 34 9.65249Z" fill="url(#paint0_radial_134_287)"/>
<path d="M10.7983 0C12.4937 0.479002 14.1767 0.998256 15.8473 1.56179C13.4306 3.02294 11.076 4.57266 8.79611 6.21495C7.33695 5.61519 5.86536 5.05166 4.37718 4.5163C6.45399 2.93439 8.59713 1.42895 10.7983 0ZM23.769 4.58876C21.6549 3.68308 19.5076 2.84583 17.3396 2.07702C14.8607 3.5422 12.4523 5.10399 10.1185 6.76238C12.0543 7.58755 13.9612 8.46907 15.8432 9.40695C18.405 7.68818 21.0497 6.08614 23.769 4.58876ZM6.38767 16.5558C4.87462 15.4528 3.33671 14.3902 1.76562 13.3718C4.07457 11.3391 6.47887 9.415 8.97021 7.5956C10.9019 8.40467 12.8088 9.27009 14.6866 10.1919C11.8098 12.1763 9.04068 14.2976 6.38767 16.5558Z" fill="url(#paint1_radial_134_287)"/>
</g>
<defs>
<radialGradient id="paint0_radial_134_287" cx="0" cy="0" r="1" gradientUnits="userSpaceOnUse" gradientTransform="translate(12.4589 13.3497) scale(19.9305 19.3531)">
<stop stop-color="#F6A531"/>
<stop offset="0.3106" stop-color="#F58B31"/>
<stop offset="0.9714" stop-color="#F44931"/>
<stop offset="1" stop-color="#F44631"/>
</radialGradient>
<radialGradient id="paint1_radial_134_287" cx="0" cy="0" r="1" gradientUnits="userSpaceOnUse" gradientTransform="translate(8.30708 3.3954) scale(16.0213 15.5571)">
<stop offset="0.231" stop-color="#9E9FA3"/>
<stop offset="0.4238" stop-color="#9B9CA0"/>
<stop offset="0.583" stop-color="#929395"/>
<stop offset="0.7299" stop-color="#828384"/>
<stop offset="0.8401" stop-color="#727272"/>
</radialGradient>
<clipPath id="clip0_134_287">
<rect width="34" height="30" fill="white"/>
</clipPath>
</defs>
</svg>
