<svg width="20" height="20" viewBox="0 0 20 20" fill="none" xmlns="http://www.w3.org/2000/svg">
<path d="M4.96667 10.0002C5 10.8335 5.05 11.6668 5.11667 12.5002H0.316667C0.1 11.7002 0 10.8668 0 10.0002C0 9.13349 0.1 8.30016 0.316667 7.50016H5.11667C5.03333 8.31682 4.98333 9.15016 4.96667 10.0002ZM3.36667 2.50016C4.53333 1.48349 5.9 0.750158 7.46667 0.316825C6.41667 1.71682 5.68333 3.70016 5.26667 6.25016H0.75C1.33333 4.80016 2.21667 3.55016 3.36667 2.50016ZM3.36667 17.5002C2.21667 16.4668 1.33333 15.2168 0.75 13.7502H5.28333C5.7 16.3002 6.43333 18.2835 7.46667 19.6835C5.9 19.2502 4.53333 18.5168 3.36667 17.5002ZM13.6333 12.5002H6.36667C6.28333 11.7002 6.23333 10.8668 6.21667 10.0002C6.25 9.13349 6.3 8.30016 6.36667 7.50016H13.6333C13.7167 8.31682 13.75 9.15016 13.75 10.0002C13.75 10.8502 13.7167 11.7002 13.6333 12.5002ZM6.56667 6.25016C6.8 4.81682 7.15 3.58349 7.61667 2.53349C8.03333 1.61682 8.46667 0.950158 8.9 0.533491C9.35 0.166825 9.71667 -0.0165088 10 0.000157866C10.2833 -0.0165088 10.65 0.166825 11.1 0.550158C11.55 0.966825 11.9667 1.63349 12.3833 2.55016C12.85 3.58349 13.2 4.83349 13.4333 6.26682H6.56667V6.25016ZM6.56667 13.7502H13.4333C13.2 15.1835 12.85 16.4168 12.3833 17.4668C11.9667 18.3835 11.5333 19.0502 11.1 19.4668C10.65 19.8502 10.2667 20.0335 9.96667 20.0002C9.7 20.0335 9.35 19.8502 8.91667 19.4502C8.46667 19.0335 8.05 18.3668 7.63333 17.4502C7.15 16.4168 6.8 15.1835 6.56667 13.7502ZM14.7333 6.25016C14.3167 3.70016 13.5833 1.71682 12.5333 0.316825C14.1 0.766825 15.4667 1.48349 16.6333 2.50016C17.7833 3.53349 18.65 4.80016 19.25 6.25016H14.7333ZM14.7333 13.7502H19.2667C18.6667 15.2168 17.8 16.4502 16.65 17.5002C15.4833 18.5168 14.1167 19.2502 12.55 19.6835C13.5833 18.2835 14.3167 16.3002 14.7333 13.7502ZM20 10.0002C20 10.8668 19.9 11.7002 19.6833 12.5002H14.8833C14.9667 11.6668 15 10.8335 15 10.0002C15 9.13349 14.9667 8.30016 14.8833 7.50016H19.6833C19.9 8.31682 20 9.15016 20 10.0002Z" fill="#F58B31"/>
</svg>
