<svg width="47" height="47" viewBox="0 0 47 47" fill="none" xmlns="http://www.w3.org/2000/svg">
<path fill-rule="evenodd" clip-rule="evenodd" d="M46.6667 0H0V46.6667H46.6667V0ZM10.6772 34.6667C11.91 34.6667 12.9027 33.646 12.9027 32.3967C12.9027 31.1475 11.91 30.135 10.6772 30.1268C9.44444 30.1268 8.45181 31.1475 8.45181 32.3967C8.45181 33.6542 9.45245 34.6667 10.6772 34.6667ZM10.6852 31.2536C11.3016 31.2536 11.806 31.768 11.806 32.3967C11.806 33.0336 11.3016 33.5399 10.6852 33.5399C10.0688 33.5399 9.56452 33.0255 9.56452 32.3967C9.56452 31.768 10.0688 31.2536 10.6852 31.2536ZM10.6772 33.1561C10.269 33.1561 9.93276 32.8132 9.93276 32.3967C9.93276 31.9803 10.269 31.6374 10.6772 31.6374C11.0855 31.6374 11.4217 31.9803 11.4217 32.3967C11.4217 32.8132 11.0855 33.1561 10.6772 33.1561ZM33.0676 31.4659C32.8274 30.8127 32.3311 30.2738 31.7067 29.988H34.4284C33.804 30.2738 33.3157 30.8045 33.0676 31.4659ZM30.65 34.6667C31.8828 34.6667 32.8754 33.646 32.8754 32.3967C32.8754 31.1475 31.8748 30.135 30.65 30.1268C29.4172 30.1268 28.4246 31.1475 28.4246 32.3967C28.4246 33.6542 29.4252 34.6667 30.65 34.6667ZM30.65 31.2536C31.2664 31.2536 31.7707 31.768 31.7707 32.3967C31.7707 33.0336 31.2664 33.548 30.65 33.5399C30.0336 33.5399 29.5293 33.0255 29.5293 32.3967C29.5293 31.768 30.0336 31.2536 30.65 31.2536ZM30.65 33.1561C30.2418 33.1561 29.9055 32.8132 29.9055 32.3967C29.9055 31.9803 30.2418 31.6374 30.65 31.6374C31.0583 31.6374 31.3945 31.9803 31.3945 32.3967C31.3945 32.8132 31.0583 33.1561 30.65 33.1561ZM35.4931 34.6667C36.7259 34.6667 37.7185 33.646 37.7185 32.3967C37.7185 31.1475 36.7259 30.135 35.4931 30.1268C34.2603 30.1268 33.2677 31.1475 33.2677 32.3967C33.2677 33.6542 34.2683 34.6667 35.4931 34.6667ZM35.5011 31.2536C36.1175 31.2536 36.6218 31.768 36.6218 32.3967C36.6218 33.0336 36.1175 33.548 35.5011 33.5399C34.8847 33.5399 34.3804 33.0255 34.3804 32.3967C34.3804 31.768 34.8847 31.2536 35.5011 31.2536ZM35.4931 33.1561C35.0849 33.1561 34.7486 32.8132 34.7486 32.3967C34.7486 31.9803 35.0849 31.6374 35.4931 31.6374C35.9014 31.6374 36.2376 31.9803 36.2376 32.3967C36.2376 32.8132 35.9014 33.1561 35.4931 33.1561ZM29.5756 29.9962C29.5815 29.9934 29.5874 29.9907 29.5933 29.988V29.9962H29.5756ZM28.1284 31.8252C28.3031 31.0152 28.848 30.3338 29.5756 29.9962H15.7445C15.4003 29.9962 15.1281 29.7104 15.1281 29.3674V21.2512C15.1281 20.9083 14.8479 20.6306 14.5117 20.6306H10.2209C9.9968 20.6306 9.78866 20.7531 9.6846 20.9491L7.13897 25.6278V26.6729H7.37112C8.09158 26.6729 8.68396 27.269 8.68396 28.012C8.68396 28.7469 8.09958 29.3511 7.37112 29.3511H7.13897V31.0331H7.51521V32.2743H8.10759C8.17163 30.8698 9.30035 29.7512 10.6932 29.7512C11.926 29.7512 12.9507 30.633 13.2149 31.817C13.2709 32.0946 13.5351 32.2743 13.8152 32.2743H27.552C27.8162 32.2743 28.0724 32.0946 28.1284 31.8252ZM13.9753 21.3818C14.1995 21.3818 14.3756 21.5615 14.3756 21.7901V25.4073C14.3756 25.6359 14.1915 25.8156 13.9753 25.8156H8.57189C8.26769 25.8156 8.07557 25.4808 8.21966 25.2113L10.1889 21.5941C10.261 21.4635 10.3971 21.3818 10.5411 21.3818H13.9753ZM6.66667 31.4169H7.13897V32.756H6.66667V31.4169ZM39.5277 31.0331H39.1515V32.2743H38.0868C38.0387 31.2536 37.4223 30.3881 36.5578 29.988H39.5277V31.0331ZM39.5277 31.4169H40V32.756H39.5277V31.4169ZM8.30772 27.5548V28.4529C8.30772 28.7387 8.08357 28.9592 7.8114 28.9592H6.76273C6.70669 28.9592 6.66667 28.9183 6.66667 28.8612V27.1465C6.66667 27.0893 6.70669 27.0485 6.76273 27.0485H7.8114C8.08357 27.0485 8.30772 27.2771 8.30772 27.5548ZM19.8671 28.951H21.8124C21.8684 28.951 21.9164 29 21.9164 29.0572V29.4736C21.9164 29.5307 21.8684 29.5797 21.8124 29.5797H19.8671C19.8111 29.5797 19.763 29.5307 19.763 29.4736V29.0572C19.763 29 19.8111 28.951 19.8671 28.951ZM34.5165 29.4736V29.0572C34.5165 29 34.5645 28.951 34.6206 28.951H36.5658C36.6218 28.951 36.6699 29 36.6699 29.0572V29.4736C36.6699 29.5307 36.6218 29.5797 36.5658 29.5797H34.6206C34.5645 29.5797 34.5165 29.5307 34.5165 29.4736ZM40 27.4486V13.1023C40 12.4899 39.5197 12 38.9273 12H17.5136C16.9212 12 16.4329 12.4899 16.4329 13.1023V27.4486C16.4329 28.061 16.9212 28.5509 17.5136 28.5509H38.9193C39.5197 28.5509 40 28.0528 40 27.4486ZM29.1691 18.5403H28.7288L29.6174 17.0706L30.4899 18.5403H30.0496V23.17H29.1691V18.5403ZM26.3993 18.5403H25.959L26.8476 17.0706L27.7201 18.5403H27.2799V23.17H26.3993V18.5403ZM24.9824 23.611H31.4505V24.501H24.9824V23.611Z" fill="#F58B31"/>
</svg>
