<svg width="20" height="20" viewBox="0 0 20 20" fill="none" xmlns="http://www.w3.org/2000/svg">
<path d="M20 10C20 15.525 15.525 20 10 20C4.47505 20 0 15.525 0 10C0 4.47504 4.47505 0 10 0C15.525 0 20 4.47504 20 10ZM14.6127 6.40275C14.5955 6.29948 14.5439 6.19621 14.475 6.12737C14.3546 6.0241 14.1652 6.00688 14.0792 6.00688C13.7005 6.00688 13.1325 6.21342 10.3442 7.36661C9.36316 7.76248 7.41824 8.60585 4.50946 9.87952C4.02754 10.0688 3.78657 10.2582 3.76936 10.4303C3.73494 10.7745 4.21687 10.8778 4.8537 11.0843C5.37005 11.2565 6.05852 11.4458 6.40276 11.4458C6.72978 11.4458 7.09122 11.3253 7.48709 11.0499C10.2065 9.20826 11.6179 8.27883 11.704 8.26162C11.7728 8.24441 11.8589 8.22719 11.9105 8.27883C11.9621 8.33046 11.9621 8.43373 11.9621 8.45095C11.9105 8.65749 9.34595 10.9983 9.20826 11.136C8.64027 11.7212 8.00344 12.0826 8.98451 12.7367C9.8451 13.3046 10.3442 13.6661 11.222 14.2341C11.79 14.5955 12.2203 15.043 12.8055 14.9914C13.0809 14.9742 13.3563 14.716 13.494 13.9587C13.821 12.1859 14.475 8.34768 14.6299 6.7642C14.6299 6.67814 14.6299 6.54045 14.6127 6.40275Z" fill="white"/>
</svg>
