<svg width="80" height="80" viewBox="0 0 80 80" fill="none" xmlns="http://www.w3.org/2000/svg">
<path d="M39.9972 2.82646C51.526 2.82646 60.906 12.3516 60.906 24.0588C60.906 35.766 51.526 45.2911 39.9972 45.2911C28.4684 45.2911 19.0884 35.766 19.0884 24.0588C19.0884 12.3516 28.4684 2.82646 39.9972 2.82646ZM39.9972 0C26.9153 0 16.3051 10.7688 16.3051 24.0588C16.3051 37.3431 26.9097 48.1176 39.9972 48.1176C53.0791 48.1176 63.6894 37.3488 63.6894 24.0588C63.6894 10.7688 53.0847 0 39.9972 0ZM39.9972 59.5591C41.6617 59.5591 43.0144 58.1854 43.0144 56.4952C43.0144 54.805 41.6617 53.4313 39.9972 53.4313C38.3328 53.4313 36.98 54.805 36.98 56.4952C36.98 58.1854 38.3328 59.5591 39.9972 59.5591ZM39.9972 61.7241C39.4405 61.7241 38.9006 61.628 38.3996 61.4641L36.2564 68.1289L40.0028 72.9282L43.7492 68.1289L41.606 61.4641C41.0939 61.6337 40.5595 61.7241 39.9972 61.7241ZM56.4025 54.5449L39.9972 76.416L23.592 54.5449C13.3936 59.333 5.00452 68.4398 0 80H80C74.9899 68.4398 66.6008 59.333 56.4025 54.5449ZM66.495 76.3652H54.5822V73.7083H66.495V76.3652Z" fill="#F58B31"/>
</svg>
