<svg width="80" height="80" viewBox="0 0 80 80" fill="none" xmlns="http://www.w3.org/2000/svg">
<path d="M8.87281 23.6794L35.597 13.376C35.5914 13.2981 35.5859 13.2201 35.5859 13.1422C35.5859 11.194 36.8494 9.54077 38.6028 8.96187V6.71305H41.386V8.9563C42.1931 9.22349 42.8945 9.71333 43.4178 10.359L70.2811 0L71.283 2.5995L44.3974 12.9641C44.3974 13.0198 44.4086 13.081 44.4086 13.1367C44.4086 15.0849 43.145 16.7381 41.3916 17.317V68.0434H38.6084V17.3226C37.8235 17.061 37.1333 16.5878 36.6156 15.9644L9.87476 26.2789L8.87281 23.6794ZM27.9822 74.4002H52.0067V71.617H27.9822V74.4002ZM21.1968 80H58.7977V77.2168H21.1968V80ZM9.37378 60.423C14.5505 60.423 18.7476 56.226 18.7476 51.0493H0C0 56.226 4.19705 60.423 9.37378 60.423ZM9.37378 33.248L15.9922 47.9878L17.0053 47.5313L9.37378 30.5316L1.73671 47.5369L2.74979 47.9933L9.37378 33.248ZM61.2469 28.4999C61.2469 33.6766 65.4439 37.8736 70.6207 37.8736C75.7974 37.8736 79.9944 33.6766 79.9944 28.4999H61.2469ZM62.9836 24.9819L63.9967 25.4384L70.6151 10.6986L77.2335 25.4384L78.2466 24.9819L70.6095 7.97662L62.9836 24.9819Z" fill="#F58B31"/>
</svg>
