<svg width="80" height="80" viewBox="0 0 80 80" fill="none" xmlns="http://www.w3.org/2000/svg">
<path d="M33.7036 36.1649C32.5122 36.1649 31.5379 37.1767 31.5379 38.427C31.5379 39.6773 32.5066 40.6891 33.7036 40.6891C34.9005 40.6891 35.8692 39.6773 35.8692 38.427C35.8692 37.1767 34.8949 36.1649 33.7036 36.1649ZM33.7036 40.1018C32.8184 40.1018 32.0947 39.3458 32.0947 38.4212C32.0947 37.4966 32.8128 36.7406 33.7036 36.7406C34.5943 36.7406 35.3125 37.4966 35.3125 38.4212C35.3125 39.3458 34.5887 40.1018 33.7036 40.1018ZM46.2965 40.6833C47.4878 40.6833 48.4621 39.6714 48.4621 38.4212C48.4621 37.1709 47.4934 36.159 46.2965 36.159C45.0995 36.159 44.1308 37.1709 44.1308 38.4212C44.1308 39.6714 45.1051 40.6833 46.2965 40.6833ZM46.2965 36.7464C47.1816 36.7464 47.9054 37.5024 47.9054 38.427C47.9054 39.3516 47.1872 40.1076 46.2965 40.1076C45.4057 40.1076 44.6876 39.3516 44.6876 38.427C44.6876 37.5024 45.4113 36.7464 46.2965 36.7464ZM42.1656 38.427C42.1656 37.1825 41.1969 36.1649 40 36.1649C38.8031 36.1649 37.8344 37.1767 37.8344 38.427C37.8344 39.6773 38.8031 40.6891 40 40.6891C41.1969 40.6891 42.1656 39.6714 42.1656 38.427ZM38.3911 38.427C38.3911 37.5024 39.1148 36.7464 40 36.7464C40.8852 36.7464 41.6089 37.5024 41.6089 38.427C41.6089 39.3516 40.8908 40.1076 40 40.1076C39.1093 40.1076 38.3911 39.3516 38.3911 38.427ZM58.11 38.427C58.11 29.018 49.9875 21.3651 40 21.3651C30.0125 21.3651 21.8901 29.018 21.8901 38.427C21.8901 42.4279 23.3876 46.3124 26.1155 49.377C25.3083 51.9764 24.0612 54.1048 22.4078 55.7156L21.8344 56.2739L22.6138 56.2157C25.57 56.0064 28.1976 54.8957 30.4356 52.9127C33.3083 54.5991 36.6096 55.4888 39.9944 55.4888C49.9875 55.4888 58.11 47.836 58.11 38.427ZM30.3744 52.2032L30.2241 52.337C28.2422 54.1397 25.9318 55.2213 23.3486 55.5586C24.8295 53.9245 25.9541 51.8543 26.7001 49.3887L26.7502 49.2258L26.6388 49.1037C23.9388 46.1263 22.4523 42.3348 22.4523 38.427C22.4523 29.3378 30.3299 21.9466 40.0056 21.9466C49.6813 21.9466 57.5588 29.3378 57.5588 38.427C57.5588 47.5162 49.6813 54.9073 40.0056 54.9073C36.643 54.9073 33.3751 54.0118 30.5525 52.3079L30.3744 52.2032ZM80 33.3328V43.5211C80 46.1787 77.9402 48.3303 75.396 48.3303C75.1566 48.3303 74.9228 48.307 74.6889 48.2663C70.9088 62.7811 58.9951 73.8184 44.3925 75.6851C44.2478 78.0926 42.3382 80 39.9944 80C37.556 80 35.5853 77.9356 35.5853 75.3943C35.5853 72.8531 37.5616 70.7887 39.9944 70.7887C42.1434 70.7887 43.936 72.3995 44.3257 74.5221C58.444 72.6845 69.9624 61.9961 73.6145 47.9523C71.9555 47.2254 70.7864 45.5099 70.7864 43.5153V33.3328C70.7864 31.6523 71.6103 30.1752 72.8629 29.3145C68.9993 14.131 55.7328 2.90761 40 2.90761C24.2617 2.90761 10.9951 14.131 7.13152 29.3145C8.37857 30.1752 9.20808 31.6523 9.20808 33.3328V43.5211C9.20808 46.1787 7.14824 48.3303 4.60405 48.3303C2.05986 48.3303 0 46.1787 0 43.5211V33.3328C0 30.7276 1.98191 28.6109 4.4593 28.5295C8.65136 12.1247 22.9924 0 40.0056 0C57.0132 0 71.3598 12.1247 75.5518 28.5295C78.0181 28.6109 80 30.7276 80 33.3328Z" fill="#F58B31"/>
</svg>
