<svg width="65" height="80" viewBox="0 0 65 80" fill="none" xmlns="http://www.w3.org/2000/svg">
<path d="M60.5307 43.2927H39.0503C36.581 43.2927 34.581 45.2856 34.581 47.7462V75.5466C34.581 78.0071 36.581 80 39.0503 80H60.5307C63 80 65 78.0071 65 75.5466V47.7462C65 45.2856 63 43.2927 60.5307 43.2927ZM44.4246 73.3644C44.4246 73.7652 44.1006 74.0881 43.6983 74.0881H40.4302C40.0279 74.0881 39.7039 73.7652 39.7039 73.3644V72.0284C39.7039 71.6276 40.0279 71.3047 40.4302 71.3047H43.6983C44.1006 71.3047 44.4246 71.6276 44.4246 72.0284V73.3644ZM44.4246 68.1929C44.4246 68.5937 44.1006 68.9166 43.6983 68.9166H40.4302C40.0279 68.9166 39.7039 68.5937 39.7039 68.1929V66.8569C39.7039 66.4561 40.0279 66.1332 40.4302 66.1332H43.6983C44.1006 66.1332 44.4246 66.4561 44.4246 66.8569V68.1929ZM44.4246 63.0214C44.4246 63.4222 44.1006 63.745 43.6983 63.745H40.4302C40.0279 63.745 39.7039 63.4222 39.7039 63.0214V61.6853C39.7039 61.2845 40.0279 60.9617 40.4302 60.9617H43.6983C44.1006 60.9617 44.4246 61.2845 44.4246 61.6853V63.0214ZM52.1508 73.3644C52.1508 73.7652 51.8268 74.0881 51.4246 74.0881H48.1564C47.7542 74.0881 47.4302 73.7652 47.4302 73.3644V72.0284C47.4302 71.6276 47.7542 71.3047 48.1564 71.3047H51.4246C51.8268 71.3047 52.1508 71.6276 52.1508 72.0284V73.3644ZM52.1508 68.1929C52.1508 68.5937 51.8268 68.9166 51.4246 68.9166H48.1564C47.7542 68.9166 47.4302 68.5937 47.4302 68.1929V66.8569C47.4302 66.4561 47.7542 66.1332 48.1564 66.1332H51.4246C51.8268 66.1332 52.1508 66.4561 52.1508 66.8569V68.1929ZM52.1508 63.0214C52.1508 63.4222 51.8268 63.745 51.4246 63.745H48.1564C47.7542 63.745 47.4302 63.4222 47.4302 63.0214V61.6853C47.4302 61.2845 47.7542 60.9617 48.1564 60.9617H51.4246C51.8268 60.9617 52.1508 61.2845 52.1508 61.6853V63.0214ZM59.8827 73.3644C59.8827 73.7652 59.5587 74.0881 59.1564 74.0881H55.8883C55.486 74.0881 55.162 73.7652 55.162 73.3644V72.0284C55.162 71.6276 55.486 71.3047 55.8883 71.3047H59.1564C59.5587 71.3047 59.8827 71.6276 59.8827 72.0284V73.3644ZM59.8827 68.1929C59.8827 68.5937 59.5587 68.9166 59.1564 68.9166H55.8883C55.486 68.9166 55.162 68.5937 55.162 68.1929V66.8569C55.162 66.4561 55.486 66.1332 55.8883 66.1332H59.1564C59.5587 66.1332 59.8827 66.4561 59.8827 66.8569V68.1929ZM59.8827 63.0214C59.8827 63.4222 59.5587 63.745 59.1564 63.745H55.8883C55.486 63.745 55.162 63.4222 55.162 63.0214V61.6853C55.162 61.2845 55.486 60.9617 55.8883 60.9617H59.1564C59.5587 60.9617 59.8827 61.2845 59.8827 61.6853V63.0214ZM59.8827 54.3984C59.8827 55.1667 59.257 55.7901 58.486 55.7901H41.095C40.324 55.7901 39.6983 55.1667 39.6983 54.3984V49.856C39.6983 49.0877 40.324 48.4643 41.095 48.4643H58.486C59.257 48.4643 59.8827 49.0877 59.8827 49.856V54.3984ZM29.0447 32.9441V35.7275H6.61452V32.9441H10.257V27.0545H13.0503V32.9386H16.4358V20.6249H19.229V32.9386H22.6145V24.9113H25.4078V32.9386H29.0447V32.9441ZM17.8212 43.2927C11.6425 43.2927 6.61452 48.3028 6.61452 54.4597C6.61452 60.6165 11.6425 65.6266 17.8212 65.6266C24 65.6266 29.0279 60.6165 29.0279 54.4597C29.0279 48.2973 24 43.2927 17.8212 43.2927ZM17.8212 62.1808C13.5475 62.1808 10.067 58.7127 10.067 54.4541C10.067 50.1955 13.5475 46.7274 17.8212 46.7274V54.4541H25.5754C25.5754 58.7183 22.095 62.1808 17.8212 62.1808ZM32.4972 0C29.7318 0 27.4916 2.23227 27.4916 4.98782C27.4916 7.74337 29.7318 9.97564 32.4972 9.97564C35.2626 9.97564 37.5028 7.74337 37.5028 4.98782C37.5028 2.23227 35.257 0 32.4972 0ZM32.4972 7.06423C31.3464 7.06423 30.4134 6.13458 30.4134 4.98782C30.4134 3.84107 31.3464 2.91142 32.4972 2.91142C33.648 2.91142 34.581 3.84107 34.581 4.98782C34.581 6.13458 33.648 7.06423 32.4972 7.06423ZM33.3408 79.9944H7.83799C3.51397 79.9944 0 76.4929 0 72.1843V11.3952C0 7.08649 3.51397 3.585 7.83799 3.585H18.9274H19.486H26.6592C26.5531 4.03591 26.486 4.50351 26.486 4.98782C26.486 5.46656 26.5475 5.92861 26.6536 6.36838H19.486V11.8572C19.486 13.2823 20.648 14.4402 22.0782 14.4402H42.9162C44.3464 14.4402 45.5084 13.2823 45.5084 11.8572V6.36838H38.3408C38.4469 5.92304 38.5084 5.461 38.5084 4.98782C38.5084 4.50351 38.4469 4.03591 38.3352 3.585H45.5084H46.067H57.1564C61.4805 3.585 64.9944 7.08649 64.9944 11.3952V42.0458C64.6481 41.773 64.2738 41.5336 63.8771 41.3277V11.3952C63.8771 7.70441 60.8603 4.69835 57.1564 4.69835H46.6257V11.8572C46.6257 13.8946 44.9609 15.5535 42.9162 15.5535H22.0782C20.0335 15.5535 18.3687 13.8946 18.3687 11.8572V4.69835H7.83799C4.13408 4.69835 1.11732 7.70441 1.11732 11.3952V72.1843C1.11732 75.875 4.13408 78.8811 7.83799 78.8811H32.6145C32.8212 79.2763 33.067 79.6493 33.3408 79.9944Z" fill="#F58B31"/>
</svg>
