<svg width="20" height="20" viewBox="0 0 20 20" fill="none" xmlns="http://www.w3.org/2000/svg">
<path d="M20 9.92381C20 15.3905 15.4476 19.8286 10 19.8286C8.34286 19.8286 6.70477 19.4095 5.25715 18.6286L0 20L1.40953 14.8571C0.533344 13.3524 0.0952439 11.6381 0.0952439 9.90476C0.0952439 4.4381 4.53333 0 10 0C12.6476 0 15.1429 1.02857 17.0095 2.91429C18.8762 4.78095 20 7.27619 20 9.92381ZM18.3429 9.92381C18.3429 7.71429 17.3905 5.65714 15.8476 4.09524C14.2857 2.53333 12.2286 1.67619 10.0191 1.67619C5.46667 1.67619 1.77143 5.37143 1.77143 9.90476C1.77143 11.4667 2.20953 12.9714 3.02858 14.2857L3.21905 14.5905L2.38095 17.6381L5.50478 16.819L5.80953 16.9905C7.06667 17.7333 8.51429 18.1333 10 18.1333C14.5333 18.1524 18.3429 14.4571 18.3429 9.92381ZM14.9905 12.2857C15.0476 12.381 15.0476 12.8762 14.8571 13.4667C14.6476 14.0381 13.6572 14.5714 13.181 14.6476C12.4 14.7619 11.7714 14.7048 10.2095 14.019C7.71429 12.9524 6.09525 10.4381 5.98097 10.2857C5.86668 10.1143 4.97143 8.93333 4.97143 7.71429C4.97143 6.49524 5.6 5.90476 5.84762 5.65714C6.07619 5.40952 6.34287 5.35238 6.5143 5.35238C6.68573 5.35238 6.83811 5.35238 6.99049 5.35238C7.14287 5.35238 7.35239 5.29524 7.54287 5.77143C7.75239 6.26667 8.24762 7.48571 8.30476 7.61905C8.36191 7.75238 8.40001 7.88571 8.32381 8.05714C7.84762 9.00952 7.33334 8.97143 7.60001 9.40952C8.55239 11.0476 9.52381 11.6381 10.9714 12.3619C11.2191 12.4952 11.3714 12.4571 11.5048 12.3048C11.6571 12.1333 12.1333 11.581 12.2857 11.3333C12.4572 11.0857 12.6095 11.1238 12.8381 11.2C13.0667 11.2762 14.2857 11.8857 14.5333 12C14.7619 12.1143 14.9333 12.1714 14.9905 12.2857Z" fill="white"/>
</svg>
